<svg width="32" height="32" viewBox="0 0 32 32" fill="none" xmlns="http://www.w3.org/2000/svg">
<path fill-rule="evenodd" clip-rule="evenodd" d="M28.9552 3.04467C28.4513 2.54077 27.6344 2.54077 27.1305 3.04467L15.9998 14.1753L4.86922 3.04467C4.36532 2.54077 3.54833 2.54077 3.04443 3.04467C2.54053 3.54858 2.54053 4.36556 3.04443 4.86947L14.175 16.0001L3.04443 27.1307C2.54053 27.6346 2.54053 28.4516 3.04443 28.9555C3.54833 29.4594 4.36532 29.4594 4.86922 28.9555L15.9998 17.8249L27.1305 28.9555C27.6344 29.4594 28.4513 29.4594 28.9552 28.9555C29.4591 28.4516 29.4591 27.6346 28.9552 27.1307L17.8246 16.0001L28.9552 4.86947C29.4591 4.36556 29.4591 3.54858 28.9552 3.04467Z" fill="white"/>
</svg>
