<svg width="16" height="16" viewBox="0 0 16 16" fill="none" xmlns="http://www.w3.org/2000/svg">
<path d="M13.7435 1.79471H11.4871V0.666504H10.3589V1.79471H5.84607V0.666504H4.71787V1.79471H2.46146C1.84094 1.79471 1.33325 2.3024 1.33325 2.92291V14.205C1.33325 14.8255 1.84094 15.3332 2.46146 15.3332H13.7435C14.364 15.3332 14.8717 14.8255 14.8717 14.205V2.92291C14.8717 2.3024 14.364 1.79471 13.7435 1.79471ZM13.7435 14.205H2.46146V6.30753H13.7435V14.205ZM13.7435 5.17932H2.46146V2.92291H4.71787V4.05112H5.84607V2.92291H10.3589V4.05112H11.4871V2.92291H13.7435V5.17932Z" fill="white"/>
</svg>
