<?xml version="1.0" ?><!DOCTYPE svg  PUBLIC '-//W3C//DTD SVG 1.1//EN'  'http://www.w3.org/Graphics/SVG/1.1/DTD/svg11.dtd'><svg height="139px" style="enable-background:new 0 0 103 139;" version="1.1" viewBox="0 0 103 139" width="103px" xml:space="preserve" xmlns="http://www.w3.org/2000/svg" xmlns:xlink="http://www.w3.org/1999/xlink"><style type="text/css">
<![CDATA[
	.st0{fill:#EF3E42;}
	.st1{fill:#FFFFFF;}
	.st2{fill:none;}
	.st3{fill-rule:evenodd;clip-rule:evenodd;fill:#FFFFFF;}
]]>
</style><defs/><path d="M74.9,32.7H95v95.6H74.9V32.7L74.9,32.7L74.9,32.7z M41.7,61h20.1v67.3H41.7V61L41.7,61L41.7,61z M8.6,89.4h20.1v38.9H8.6  V89.4L8.6,89.4L8.6,89.4z M50,33.9c-1,14.7-14.5,26.7-26,34.9c-3.7,2.7-11.4,6.4-11.4,6.4s3.7-3,5.4-4.6c10-8.2,19.7-22.1,19.6-36.7  h-6.5l12.6-12.7l12.8,12.7H50L50,33.9L50,33.9z"/><rect class="st2" height="139" id="_x3C_Slice_x3E__100_" width="103"/></svg>