<svg xmlns="http://www.w3.org/2000/svg" width="60.485" height="60.486" viewBox="0 0 60.485 60.486"><defs><style>.a{fill:#fff;}</style></defs><g transform="translate(-110.097)"><path class="a" d="M435.338,835.28a.412.412,0,0,0-.015.095.437.437,0,0,0,.652.4l8.012-4.567-.432-.76-8.011,4.568A.437.437,0,0,0,435.338,835.28Z" transform="translate(-288.117 -809.336)"/><path class="a" d="M392.748,823.169a3.041,3.041,0,0,0,1.172,5.929,3.066,3.066,0,0,0,2.069-1.067,3.041,3.041,0,0,0-3.241-4.862Zm3.209,2.707a2.3,2.3,0,0,1-1.6,2.382,2.318,2.318,0,0,1-.5.1,2.3,2.3,0,1,1,2.1-2.481Z" transform="translate(-265.571 -805.593)"/><path class="a" d="M451.148,824.737a3.061,3.061,0,0,0-.107.672,3.042,3.042,0,0,0,5.972.941,3.069,3.069,0,0,0-.289-2.311,3.042,3.042,0,0,0-4.147-1.139h0A3.021,3.021,0,0,0,451.148,824.737Zm3.541-1.41h0a2.3,2.3,0,0,1,1.686,2.319,2.328,2.328,0,0,1-.08.505,2.3,2.3,0,1,1-1.607-2.825Z" transform="translate(-296.044 -805.328)"/><path class="a" d="M412.632,831.354a8.681,8.681,0,1,0,8.682,8.681A8.691,8.691,0,0,0,412.632,831.354Zm0,16.118a7.436,7.436,0,1,1,7.437-7.437A7.445,7.445,0,0,1,412.632,847.472Z" transform="translate(-272.292 -809.794)"/><path class="a" d="M420.77,817.611a.56.56,0,0,0-.4-.169l-5.063.012-.021-.475a24.359,24.359,0,0,0-.58-4.335l-.105-.463,4.874-1.324a.566.566,0,0,0,.343-.266.574.574,0,0,0,.05-.429l-.146-.514c-.112-.4-.251-.9-.43-1.417l-.818-2.085c-.083-.213-.169-.433-.284-.676l-1.354-2.616-1.611-2.474c-.122-.172-.268-.352-.406-.521l-1.453-1.794c-.314-.359-.656-.7-.959-1.009l-.045-.046q-.176-.177-.354-.361a.559.559,0,0,0-.4-.168.566.566,0,0,0-.4.164l-3.566,3.586-.35-.322a24.631,24.631,0,0,0-3.477-2.651l-.4-.253,2.512-4.391a.559.559,0,0,0-.218-.772l-1.76-.949c-.421-.2-.874-.39-1.274-.559l-1.451-.61c-.15-.053-.325-.11-.5-.168l-.036-.012-2.323-.723-2.1-.455c-.262-.055-.5-.1-.773-.152l-1.62-.192c-.421-.048-.858-.1-1.342-.134l-1.908-.04-.109.014a.484.484,0,0,0-.095.025.54.54,0,0,0-.1.044l-.039.021-.144.149a.541.541,0,0,0-.1.31l.032,10.448h1.12l-.031-9.877,1.3.024c.46.037.9.087,1.291.13.221.026.44.051.64.072l.921.113c.273.047.517.1.766.153l1.993.428,2.262.707c.179.058.351.113.474.156l1.436.6c.434.183.839.354,1.194.522l1.23.663-2.506,4.378a.56.56,0,0,0,.209.766,23.341,23.341,0,0,1,4.879,3.72.583.583,0,0,0,.793,0l3.562-3.583.351.362c.194.2.383.4.55.588l1.441,1.783c.126.154.253.31.347.441l1.558,2.389,1.33,2.569c.092.194.163.376.24.578l.816,2.076c.086.247.168.507.258.821l.14.483-4.869,1.322a.559.559,0,0,0-.394.687,23.3,23.3,0,0,1,.815,6.086.558.558,0,0,0,.166.394.525.525,0,0,0,.376.164l5.065-.013-.028,1.315c-.039.54-.1,1.074-.16,1.544l-.15,1.294c-.034.208-.073.389-.112.571l-.468,2.189-.859,2.728-.592,1.406c-.179.422-.365.859-.543,1.238l-.662,1.23-4.379-2.506a.555.555,0,0,0-.424-.054.56.56,0,0,0-.341.264,23.3,23.3,0,0,1-3.718,4.883.568.568,0,0,0-.162.4.554.554,0,0,0,.163.392l3.58,3.56-.358.352c-.23.224-.422.4-.585.546l-1.781,1.44c-.17.138-.317.256-.464.355l-2.37,1.547-2.585,1.336c-.188.093-.373.166-.553.236l-2.084.819c-.251.088-.5.167-.82.257l-.482.14-1.323-4.871a.566.566,0,0,0-.266-.341.553.553,0,0,0-.422-.051,23.378,23.378,0,0,1-6.082.816.561.561,0,0,0-.4.164.551.551,0,0,0-.164.4l.013,5.047-1.317-.029c-.514-.036-1.011-.1-1.45-.147l-1.374-.159c-.174-.031-.315-.06-.48-.1l-2.292-.488-2.248-.7c-.183-.057-.365-.115-.487-.156l-1.326-.561c-.451-.189-.919-.386-1.31-.567l-1.231-.668,2.5-4.378a.558.558,0,0,0-.207-.766,23.324,23.324,0,0,1-4.885-3.718.538.538,0,0,0-.4-.162.552.552,0,0,0-.394.164l-3.559,3.579-.351-.361c-.239-.245-.408-.426-.548-.586l-1.219-1.5c-.078-.1-.15-.193-.223-.283l-.033-.042c-.124-.154-.233-.291-.315-.406l-1.556-2.382-1.331-2.572c-.065-.136-.118-.263-.168-.39l-.069-.173c-.043-.109-.086-.215-.119-.293l-.7-1.8c-.106-.3-.191-.584-.26-.822l-.139-.484,4.873-1.325a.555.555,0,0,0,.339-.261.562.562,0,0,0,.055-.428,23.246,23.246,0,0,1-.82-6.078.573.573,0,0,0-.167-.4.556.556,0,0,0-.392-.161l-5.049.012.024-1.3c.034-.444.081-.842.138-1.316l.181-1.529c.038-.229.081-.434.123-.636l.457-2.125.663-2.118c.072-.231.142-.455.2-.628l.73-1.732c.141-.329.271-.631.391-.89l.669-1.232,4.381,2.507a.561.561,0,0,0,.764-.212,23.1,23.1,0,0,1,3.717-4.883.56.56,0,0,0,.163-.4.566.566,0,0,0-.167-.394l-3.579-3.557.356-.352c.234-.23.42-.4.585-.55l1.5-1.216c.105-.079.2-.151.3-.231l.04-.033c.155-.124.287-.23.4-.312l2.376-1.551,2.569-1.329c.164-.078.319-.14.471-.2l.065-.025c.144-.057.247-.1.324-.132l1.79-.7c.283-.1.563-.182.824-.257l.483-.138,1.313,4.835,1.06-.374-1.438-5.3a.559.559,0,0,0-.695-.393l-.572.16c-.437.12-.884.243-1.362.41L379,790.2c-.085.037-.187.077-.294.12-.2.08-.41.163-.637.27l-2.658,1.379-2.424,1.581c-.161.114-.324.243-.49.377l-.087.07c-.067.053-.138.11-.223.173l-1.529,1.238c-.344.3-.683.64-.981.939l-.05.05c-.125.124-.25.249-.375.371a.565.565,0,0,0-.17.4.557.557,0,0,0,.163.4l3.585,3.563-.323.351a24.422,24.422,0,0,0-2.649,3.48l-.253.4-4.39-2.512a.561.561,0,0,0-.772.219l-.953,1.761c-.172.369-.343.771-.515,1.171l-.654,1.555c-.08.227-.161.482-.241.74l-.662,2.121-.472,2.185c-.045.214-.089.431-.135.7l-.187,1.58c-.055.468-.1.888-.142,1.373l-.037,1.912a.56.56,0,0,0,.563.572l5.06-.013.021.475a24.477,24.477,0,0,0,.584,4.332l.105.463-4.877,1.326a.559.559,0,0,0-.392.7l.155.549c.108.387.24.867.421,1.38l.713,1.833c.035.08.076.182.132.326.084.212.156.392.256.6l1.382,2.662,1.582,2.424c.112.159.241.323.372.485l.063.078c.069.087.122.154.184.235l1.243,1.526c.312.356.662.709.971,1.02l.381.387a.579.579,0,0,0,.4.173.585.585,0,0,0,.4-.167l3.559-3.581.351.32a24.553,24.553,0,0,0,3.481,2.65l.4.253-2.514,4.392a.563.563,0,0,0,.219.77l1.764.955c.45.209.95.419,1.391.605l1.335.562c.154.055.334.113.515.17l.031.01,2.318.724,2.242.481c.227.047.407.084.645.127l1.419.166c.456.054.974.114,1.524.153l1.919.042a.545.545,0,0,0,.4-.159.567.567,0,0,0,.17-.4l-.014-5.06.475-.021a24.4,24.4,0,0,0,4.335-.58l.464-.1,1.324,4.872a.542.542,0,0,0,.265.342.557.557,0,0,0,.428.052l.528-.149c.455-.127.914-.255,1.4-.427l2.058-.808c.242-.094.461-.181.691-.294l2.666-1.383,2.411-1.572c.191-.13.384-.285.57-.435l1.775-1.435c.343-.3.69-.646,1-.949l.409-.4a.569.569,0,0,0,.172-.4.557.557,0,0,0-.164-.4l-3.584-3.562.32-.35a24.532,24.532,0,0,0,2.648-3.481l.253-.4,4.392,2.514a.559.559,0,0,0,.77-.22h0l.948-1.758c.189-.4.377-.84.558-1.267l.62-1.475c.047-.14.1-.312.172-.528l.729-2.324.476-2.216c.043-.2.086-.406.13-.668l.156-1.348c.054-.448.121-1.005.164-1.6l.04-1.918A.554.554,0,0,0,420.77,817.611Z" transform="translate(-250.346 -787.849)"/><rect class="a" width="1.121" height="3.593" transform="matrix(1, -0.003, 0.003, 1, 139.744, 18.593)"/><path class="a" d="M420.244,817.648h1.121l-.023-7.579h-1.12Z" transform="translate(-280.5 -799.058)"/><path class="a" d="M420.244,894.06h1.121l-.023-14.109h-1.12Z" transform="translate(-280.5 -834.308)"/><path class="a" d="M405.55,856.012a14.776,14.776,0,0,1-10.568-3.461,14.93,14.93,0,0,1-3.193-18.852l-.82-.329a15.847,15.847,0,0,0,3.45,19.848,15.576,15.576,0,0,0,11.123,3.669Z" transform="translate(-264.699 -810.811)"/></g></svg>