<?xml version="1.0" encoding="utf-8"?>
<!-- Generator: Adobe Illustrator 16.0.3, SVG Export Plug-In . SVG Version: 6.00 Build 0)  -->
<!DOCTYPE svg PUBLIC "-//W3C//DTD SVG 1.1//EN" "http://www.w3.org/Graphics/SVG/1.1/DTD/svg11.dtd">
<svg version="1.1" xmlns="http://www.w3.org/2000/svg" xmlns:xlink="http://www.w3.org/1999/xlink" x="0px" y="0px"
	 width="1445.602px" height="487.926px" viewBox="0 0 1445.602 487.926" enable-background="new 0 0 1445.602 487.926"
	 xml:space="preserve">
<g id="Capa_2">
	<path fill="#FECD08" d="M999.6,244.221c0,0,75.801-223.063-447.798-242.715c0,0-561.498-36.497-551.675,249.865
		c0.947,27.58,5.764,54.624,18.625,79.666c30.785,59.938,107.99,83.9,171.215,80.829c49.457-2.402,109.335-8.171,148.465-39.534
		c43.026-34.49,63.198-100.023,87.174-147.052c22.886-44.89,57.681-88.363,99.049-117.517c23.822-16.79,52.745-30.303,80.815-38.251
		c27.752-7.858,57.854-13.538,86.708-13.26C911.165,58.358,995.388,143.285,999.6,244.221z"/>
	<path fill="#2697D4" d="M446.002,243.706c0,0-75.8,223.063,447.798,242.715c0,0,561.497,36.498,551.674-249.864
		c-0.945-27.58-5.764-54.624-18.623-79.666c-30.784-59.938-107.99-83.9-171.216-80.828c-49.455,2.402-109.334,8.169-148.463,39.534
		c-43.027,34.489-63.198,100.021-87.176,147.051c-22.888,44.89-57.681,88.363-99.049,117.517
		c-23.825,16.79-52.744,30.304-80.813,38.251c-27.75,7.859-57.854,13.538-86.707,13.26
		C534.439,429.569,450.214,344.642,446.002,243.706z"/>
</g>
<g id="Capa_3">
	<g>
		<polygon fill="#E42613" points="211.832,121.159 83.278,121.159 83.278,163.806 211.832,386.468 340.386,163.806 340.386,121.159 
					"/>
		<path fill="#F1C40F" d="M287.936,174.014c-19.15,5.529-32.924,6.056-32.924,6.056c-15.015,1.818-43.18-6.056-43.18-6.056
			s-28.165,7.875-43.179,6.056c0,0-13.773-0.527-32.923-6.056c0,0-2.612,49.301,36.016,81.094c0,0,29.182,23.194,40.086,28.106
			c10.905-4.912,40.087-28.106,40.087-28.106C290.546,223.314,287.936,174.014,287.936,174.014z M245.957,251.148
			c0,0-25.119,19.962-34.505,24.192c-9.387-4.23-34.506-24.192-34.506-24.192c-33.25-27.369-32.692-67.613-32.692-67.613
			c16.483,4.761,29.565,3.4,29.565,3.4c12.537,0.152,38.013-5.596,38.013-5.596s22.809,5.824,36.747,5.882
			c0,0,13.733,0.922,30.218-3.838C278.796,183.383,279.207,223.779,245.957,251.148z"/>
		<path fill="#F1C40F" d="M151.011,190.908"/>
		<path fill="#FFFFFF" d="M233.18,191.521c-14.707-3.979-21.349-5.222-21.349-5.222s-6.642,1.243-21.348,5.222
			c0,0-13.209,2.612-39.473-0.614c0,0,4.146,30.182,15.896,41.93c11.75,11.75,38.244,35.018,44.924,36.172
			c6.681-1.154,33.062-22.694,44.925-36.172c10.979-12.473,15.896-41.93,15.896-41.93C246.39,194.133,233.18,191.521,233.18,191.521
			z"/>
		<path fill="#F1C40F" d="M333.091,127.822H211.832H90.573v35.984l121.258,210.025l0,0l121.259-210.025V127.822z M325.564,163.806
			l-113.733,196.99L98.1,163.806v-27.614h113.732h113.733V163.806z"/>
		<path fill="#2880B8" d="M158.538,256.796l-9.832-23.651l6.605-1.537l3.994,5.375l12.44-6.296l-3.858-12.421
			c0,0-0.116-3.166-7.948-5.875l19.237-5.299c0,0-3.456,4.263-2.247,8.235l2.938,11.29l107.224-35.634l-102.06,48.458l6.143,11.384
			c0,0,1.612,3.129,8.523,4.743l-15.051,8.523c0,0,2.073-7.832-0.077-9.521l-7.987-11.98l-12.824,4.146l0.614,7.373L158.538,256.796
			z"/>
	</g>
	<g>
		<polygon fill="#142E69" points="1182.961,382.3 1305.876,382.3 1390.527,304.206 1390.527,194.526 1306.487,116.99 
			1182.976,116.99 1101.678,191.992 1101.678,308.313 		"/>
		<path fill="#F7D118" d="M1302.929,376.27h-116.655l-77.938-70.948v-111.56l77.925-71.889h117.218l80.39,74.162v105.569
			L1302.929,376.27z M1189.411,368.171h110.355l76.002-70.116v-98.47l-75.455-69.611h-110.889l-72.986,67.338v104.433
			L1189.411,368.171z"/>
		<rect x="1242.831" y="206.036" fill="#F7D118" width="2.832" height="87.221"/>
		<path fill="#F7D118" d="M1324.792,222.72c-6.406-4.143-13.463-7.271-20.642-9.802c-8.397-2.962-17.092-5.058-25.87-6.527
			c-20.112-3.368-40.831-3.718-61.05-1.06c-17.056,2.242-34.392,6.448-49.518,14.893c-9.922,5.542-20.744,14.162-22.7,26.099
			c-0.884,5.397,0.101,10.748,2.641,15.578c2.802,5.335,7.211,9.641,11.96,13.253c5.792,4.407,12.341,7.71,19.058,10.46
			c7.941,3.255,16.238,5.619,24.636,7.364c19.786,4.112,40.331,5.028,60.434,3.151c17.851-1.665,35.901-5.443,52.141-13.256
			c10.862-5.228,22.559-13.157,26.597-25.128c0.802-2.379,1.208-4.919,1.217-7.429
			C1343.648,238.206,1334.321,228.879,1324.792,222.72z M1337.737,244.025c0.368,1.069,0.659,2.163,0.857,3.273
			c0.035,0.192,0.166,1.25,0.082,0.461c0.028,0.266,0.061,0.529,0.084,0.794c0.006,0.115,0.014,0.229,0.019,0.344h-12.814
			c-0.066-3.696-0.796-7.261-2.176-10.668h10.91c0.641,0.929,1.234,1.887,1.757,2.88c0.291,0.543,0.541,1.103,0.806,1.659
			c0.005,0.006,0.009,0.009,0.009,0.016c0.043,0.106,0.086,0.213,0.127,0.318C1337.518,243.411,1337.634,243.716,1337.737,244.025z
			 M1317.147,264.107h-12.571c3.464-5.784,4.271-10.331,4.454-12.375h14.098c-0.127,1.885-0.987,6.384-5.82,12.186
			C1317.256,263.98,1317.198,264.045,1317.147,264.107z M1231.852,291.836c-5.922-3.443-10.816-6.916-14.86-10.308h6.106
			c2.503,3.409,5.557,6.892,9.271,10.342C1232.196,291.862,1232.023,291.848,1231.852,291.836z M1167.612,238.23h13.097
			c-0.922,3.395-1.299,6.956-1.106,10.668h-14.12C1165.332,245.173,1166.045,241.616,1167.612,238.23z M1288.941,213.519
			c3.785,1.411,8.241,3.332,12.662,5.833c0.751,0.428,1.48,0.858,2.194,1.296h-7.84c-3.271-3.021-7.131-5.697-11.567-7.989
			c-0.207-0.108-0.417-0.209-0.622-0.314C1285.5,212.706,1287.219,213.102,1288.941,213.519z M1306.29,218.868
			c1.458,0.564,2.873,1.148,4.304,1.78h-1.664C1308.081,220.045,1307.199,219.453,1306.29,218.868z M1309.028,248.898
			c-0.182-3.746-0.81-7.307-1.85-10.668h13.585c1.513,3.377,2.304,6.934,2.369,10.668H1309.028z M1267.261,278.693
			c2.918-4.274,4.947-8.302,6.352-11.75h11.533c-2.326,3.56-5.683,7.537-10.498,11.75H1267.261z M1271.221,281.529
			c-4.115,3.232-9.106,6.575-15.168,9.951c3.659-3.321,6.678-6.686,9.164-9.951H1271.221z M1234.026,278.693
			c-1.131-3.372-2.086-7.316-2.783-11.75h26.299c-0.697,4.434-1.653,8.378-2.784,11.75H1234.026z M1253.713,281.529
			c-2.665,6.575-6.049,10.311-9.322,10.311c-3.272,0-6.654-3.736-9.32-10.311H1253.713z M1183.612,238.23h13.674
			c-0.545,1.64-1.021,3.356-1.408,5.158c-0.397,1.833-0.616,3.676-0.676,5.51h-12.766
			C1182.228,245.147,1182.62,241.59,1183.612,238.23z M1193.169,223.485h12.158c-2.675,3.334-5.124,7.279-6.997,11.91h-13.713
			C1186.405,231.062,1189.259,227.085,1193.169,223.485z M1217.455,223.485c-1.961,3.391-3.667,7.357-4.748,11.91h-11.328
			c1.877-4.355,4.411-8.332,7.599-11.91H1217.455z M1211.728,220.648c2.021-1.922,4.252-3.717,6.699-5.373
			c4.453-3.023,8.702-4.934,11.585-6.033c-2.003,1.556-4.248,3.534-6.48,5.965c-1.416,1.552-2.893,3.366-4.299,5.441H1211.728z
			 M1256.937,218.322c-1.515-4.158-3.298-7.433-5.274-9.743c2.541,1.294,6.53,3.708,10.471,7.648
			c1.398,1.401,2.682,2.876,3.845,4.421h-8.262C1257.467,219.854,1257.206,219.074,1256.937,218.322z M1303.168,235.396h-12.748
			c-1.646-4.236-4.041-8.223-7.157-11.91h11.625C1298.513,226.993,1301.272,230.968,1303.168,235.396z M1287.417,235.396h-11.524
			c-1.125-4.614-2.794-8.563-4.704-11.91h8.318C1282.984,227.148,1285.624,231.124,1287.417,235.396z M1286.844,264.107h-12.164
			c2.025-5.849,2.529-10.35,2.657-12.375h13.006C1290.41,253.544,1290.14,258.039,1286.844,264.107z M1200.469,261.026
			c-1.355-2.973-2.148-6.105-2.377-9.293h13.626c0.086,2.27,0.523,6.72,2.35,12.375h-12.039
			C1201.431,263.028,1200.915,261.998,1200.469,261.026z M1200.275,238.23h11.859c-0.555,3.279-0.782,6.834-0.561,10.668h-13.532
			c0.053-1.636,0.252-3.277,0.605-4.912C1199.075,242.006,1199.619,240.089,1200.275,238.23z M1274.57,248.898h-12.911
			c-0.021-3.645-0.209-7.221-0.538-10.668h12.526C1274.292,241.6,1274.596,245.156,1274.57,248.898z M1258.827,248.898h-28.866
			c0.022-3.752,0.207-7.317,0.534-10.668h27.796C1258.618,241.581,1258.802,245.146,1258.827,248.898z M1227.125,248.898h-12.714
			c-0.002,0-0.002,0-0.002,0c-0.227-3.693-0.032-7.251,0.575-10.668h12.677C1227.333,241.677,1227.15,245.253,1227.125,248.898z
			 M1214.552,251.732h12.585c0.07,4.269,0.367,8.422,0.86,12.375h-10.87C1215.051,258.096,1214.635,253.517,1214.552,251.732z
			 M1229.973,251.732h28.838c-0.072,4.414-0.375,8.554-0.865,12.375h-27.109C1230.347,260.287,1230.048,256.146,1229.973,251.732z
			 M1261.645,251.732h12.841c-0.15,2.014-0.716,6.549-2.857,12.375h-10.847C1261.282,260.155,1261.574,256.001,1261.645,251.732z
			 M1277.409,248.898c0.023-3.868-0.313-7.417-0.909-10.668h11.966c1.097,3.387,1.688,6.944,1.773,10.668H1277.409z
			 M1269.429,220.648c-1.722-2.549-3.548-4.681-5.292-6.423c-1.891-1.896-3.791-3.457-5.558-4.729
			c3.511,1.485,8.228,3.809,12.937,7.141c1.818,1.285,3.5,2.625,5.055,4.011H1269.429z M1267.934,223.485
			c2.273,3.623,3.969,7.598,5.073,11.91h-12.201c-0.524-4.245-1.28-8.255-2.259-11.91H1267.934z M1257.978,235.396h-27.17
			c0.552-4.418,1.355-8.415,2.333-11.91h22.5C1256.619,226.981,1257.424,230.977,1257.978,235.396z M1227.976,235.396h-12.388
			c1.06-4.207,2.774-8.183,5.146-11.91h9.502C1229.259,227.14,1228.5,231.151,1227.976,235.396z M1195.249,251.732
			c0.233,3.591,1.116,7.124,2.646,10.468c0.276,0.613,0.585,1.252,0.921,1.907h-11.573c-3.646-5.685-4.491-10.213-4.673-12.375
			H1195.249z M1200.398,266.943c2.14,3.559,5.13,7.549,9.308,11.75h-8.171c-5.575-4.092-9.518-8.098-12.304-11.75H1200.398z
			 M1203.739,266.943h11.33c1.383,3.61,3.324,7.596,6.059,11.75h-7.348C1209.295,274.518,1206.063,270.525,1203.739,266.943z
			 M1218.195,266.943h10.204c0.656,4.241,1.56,8.199,2.683,11.75h-6.466C1221.729,274.549,1219.667,270.553,1218.195,266.943z
			 M1260.382,266.943h10.113c-1.56,3.626-3.718,7.623-6.713,11.75h-6.083C1258.827,275.142,1259.732,271.184,1260.382,266.943z
			 M1287.932,267.874c0.194-0.314,0.386-0.625,0.57-0.93h10.687c-2.739,3.505-6.72,7.554-12.479,11.75h-7.833
			C1282.57,275.182,1285.596,271.571,1287.932,267.874z M1290.047,264.107c2.863-5.813,3.196-10.246,3.133-12.375h12.996
			c-0.228,2.015-1.16,6.615-4.949,12.375H1290.047z M1293.079,248.898c-0.086-3.687-0.646-7.249-1.68-10.668h12.849
			c1.101,3.325,1.748,6.883,1.942,10.668H1293.079z M1306.176,235.396c-1.723-4.358-4.205-8.342-7.42-11.91h9.287
			c4.984,3.638,8.741,7.613,11.26,11.91H1306.176z M1283.088,215.178c3.179,1.644,6.029,3.468,8.559,5.471h-10.979
			c-2.221-2.239-4.729-4.353-7.513-6.325c-2.703-1.912-5.395-3.501-7.87-4.801c1.48,0.149,2.959,0.314,4.438,0.5
			C1273.653,211.105,1278.374,212.741,1283.088,215.178z M1254.776,220.648h-20.765c2.053-6.148,4.688-10.392,7.421-12.207
			c1.984-0.021,3.969-0.009,5.954,0.024C1250.108,210.293,1252.728,214.527,1254.776,220.648z M1237.158,208.538
			c-1.99,2.31-3.788,5.601-5.308,9.784c-0.273,0.752-0.534,1.532-0.783,2.327h-8.374c0.882-1.175,1.837-2.324,2.861-3.445
			c3.909-4.288,7.946-7.122,10.371-8.618C1236.336,208.569,1236.75,208.551,1237.158,208.538z M1216.922,212.87
			c-2.895,1.953-6.093,4.514-9.147,7.779h-11.208c1.974-1.496,4.146-2.918,6.525-4.264c5.086-2.875,10.256-4.887,14.36-6.221
			c1.663-0.224,3.331-0.427,5-0.609C1220.704,210.477,1218.836,211.574,1216.922,212.87z M1202.041,213.728
			c-0.093,0.05-0.188,0.102-0.28,0.153c-3.654,2.06-6.861,4.324-9.63,6.768h-5.872c1.565-0.861,3.217-1.703,4.955-2.524
			C1194.875,216.396,1198.578,214.938,1202.041,213.728z M1189.195,223.485c-3.431,3.635-5.966,7.623-7.572,11.91h-12.475
			c2.68-4.277,6.814-8.254,12.389-11.91H1189.195z M1179.729,251.732c0.155,2.286,0.932,6.763,4.2,12.375h-12.061
			c-5.503-6.299-6.159-10.964-6.214-12.375H1179.729z M1185.737,266.943c0.437,0.631,0.902,1.269,1.406,1.92
			c2.65,3.435,5.906,6.715,9.748,9.83h-5.827c-6.726-3.731-12.232-7.654-16.483-11.75H1185.737z M1200.608,281.529
			c2.868,2.059,6.009,4.044,9.421,5.946c-4.897-1.918-9.419-3.902-13.556-5.946H1200.608z M1224.288,291.24
			c-7.47-3.164-13.604-6.444-18.642-9.711h7.038c3.557,3.226,7.838,6.538,12.975,9.842
			C1225.201,291.329,1224.743,291.285,1224.288,291.24z M1226.708,281.529h5.349c1.817,4.819,4.012,8.403,6.442,10.603
			c-0.544-0.017-1.081-0.031-1.624-0.051C1232.783,288.591,1229.439,285.029,1226.708,281.529z M1256.725,281.529h4.88
			c-2.866,3.527-6.365,7.108-10.639,10.589c-0.229,0.006-0.456,0.008-0.684,0.016
			C1252.716,289.936,1254.91,286.349,1256.725,281.529z M1275.723,281.529h6.845c-5.098,3.284-11.338,6.604-18.971,9.774
			c-0.633,0.061-1.263,0.122-1.892,0.177C1267.02,288.275,1271.702,284.954,1275.723,281.529z M1273.967,289.677
			c5.342-2.696,9.85-5.442,13.651-8.148h5.451C1287.741,284.217,1281.427,286.96,1273.967,289.677z M1291.372,278.693
			c5.288-4.245,8.896-8.294,11.353-11.75h11.792c-3.514,3.481-8.646,7.509-16.133,11.75H1291.372z M1329.206,232.126
			c1.058,0.958,2.074,1.963,3.034,3.02c0.07,0.082,0.137,0.169,0.213,0.249h-9.974c-2.248-4.27-5.556-8.26-9.883-11.91h3.84
			c1.946,1.027,3.858,2.12,5.715,3.309C1325.001,228.626,1326.807,229.957,1329.206,232.126z M1180.694,219.408
			c2.018-0.809,4.056-1.561,6.109-2.259c-2.16,1.124-4.179,2.292-6.056,3.5h-2.978c0.208-0.089,0.409-0.187,0.611-0.275
			C1179.298,219.975,1179.689,219.813,1180.694,219.408z M1159.518,231.791c0.511-0.45,1.031-0.893,1.559-1.324
			c0.268-0.219,0.544-0.435,0.813-0.653c0.037-0.027,0.065-0.05,0.09-0.07c0.022-0.018,0.054-0.039,0.087-0.068
			c0.2-0.147,0.396-0.299,0.598-0.446c2.678-1.983,5.518-3.743,8.445-5.325c0.265-0.146,0.534-0.28,0.8-0.419h4.789
			c-4.8,3.665-8.399,7.653-10.757,11.91h-10.051c0.181-0.2,0.359-0.4,0.539-0.598
			C1157.409,233.744,1158.439,232.745,1159.518,231.791z M1149.672,247.806c0.033-0.22,0.068-0.443,0.109-0.665
			c0.216-1.165,0.533-2.309,0.934-3.423c0.095-0.257,0.195-0.513,0.293-0.767c0.028-0.072,0.051-0.122,0.062-0.158
			c0.019-0.036,0.048-0.092,0.084-0.172c0.283-0.614,0.573-1.219,0.898-1.809c0.481-0.888,1.019-1.747,1.594-2.582h10.933
			c-1.407,3.411-2.066,6.975-1.93,10.668h-13.083c0.009-0.115,0.013-0.229,0.022-0.344
			C1149.601,248.408,1149.686,247.763,1149.672,247.806z M1151.04,257.76C1151.008,257.683,1150.996,257.648,1151.04,257.76
			L1151.04,257.76z M1151.12,257.938c-0.014-0.032-0.036-0.076-0.055-0.118c-0.038-0.098-0.078-0.193-0.116-0.293
			c-0.118-0.303-0.233-0.611-0.34-0.92c-0.383-1.118-0.685-2.264-0.885-3.429c-0.026-0.16-0.136-1.086-0.054-0.304
			c-0.026-0.265-0.059-0.528-0.082-0.794c-0.01-0.116-0.014-0.231-0.022-0.347h13.251c0.002,0.038,0.002,0.076,0.004,0.113
			c0.078,1.904,0.816,6.39,5.373,12.262h-13.271c-0.012-0.011-0.019-0.021-0.029-0.034c-0.08-0.099-0.485-0.623-0.476-0.6
			c-0.173-0.235-0.349-0.468-0.518-0.707c-0.738-1.036-1.414-2.119-2.011-3.245C1151.617,259.003,1151.368,258.472,1151.12,257.938z
			 M1162.054,270.947C1162.077,270.964,1162.073,270.958,1162.054,270.947L1162.054,270.947z M1162.408,271.212
			c-0.149-0.111-0.294-0.222-0.441-0.336c-0.033-0.023-0.058-0.045-0.076-0.058c-0.327-0.26-0.652-0.517-0.976-0.783
			c-0.576-0.477-1.143-0.963-1.697-1.463c-0.586-0.526-1.156-1.073-1.714-1.629h13.102c0.55,0.591,1.133,1.192,1.757,1.803
			c3.533,3.444,7.9,6.761,13.087,9.947h-10.503c-1.386-0.671-2.769-1.378-4.152-2.136
			C1167.881,274.968,1165.062,273.202,1162.408,271.212z M1191.903,285.106c-3.631-1.077-7.093-2.242-10.473-3.577h8.913
			c4.247,2.324,8.952,4.571,14.101,6.737C1200.221,287.381,1196.034,286.333,1191.903,285.106z M1286.746,287.638
			c4.671-2.041,8.797-4.088,12.426-6.109h7.718c-1.583,0.623-3.187,1.211-4.812,1.771
			C1297.055,285.036,1291.928,286.46,1286.746,287.638z M1328.982,268.707c-0.559,0.5-1.13,0.986-1.711,1.458
			c-0.268,0.22-0.542,0.437-0.815,0.653c-0.035,0.029-0.065,0.051-0.091,0.071c-0.022,0.019-0.05,0.042-0.084,0.065
			c-0.173,0.128-0.339,0.258-0.513,0.387c-1.297,0.965-2.633,1.875-4.001,2.739c-2.743,1.736-5.519,3.256-8.346,4.613h-9.451
			c6.609-4.14,11.252-8.132,14.496-11.75h12.372C1330.233,267.547,1329.618,268.139,1328.982,268.707z M1338.676,252.874
			c0.08-0.773-0.044,0.252-0.082,0.459c-0.205,1.167-0.517,2.313-0.911,3.427c-0.108,0.311-0.228,0.617-0.346,0.923
			c-0.014,0.038-0.032,0.078-0.047,0.118c0.125-0.311-0.045,0.109-0.093,0.215c-0.261,0.559-0.528,1.113-0.819,1.657
			c-0.604,1.124-1.293,2.205-2.035,3.241c-0.105,0.145-0.21,0.289-0.319,0.435c-0.006,0.009-0.073,0.099-0.135,0.176
			c-0.062,0.082-0.142,0.185-0.148,0.193c-0.104,0.129-0.208,0.262-0.319,0.391h-12.622c4.295-5.737,5.091-10.229,5.18-12.375h12.8
			c-0.005,0.116-0.013,0.231-0.019,0.347C1338.733,252.345,1338.705,252.608,1338.676,252.874z"/>
		<path fill="#F7D118" d="M1181.417,207.049l-1.476-10.801l-10.851-5.176l11.055-4.8l1.914-10.729l8.059,7.918l11.907-1.671
			l-5.824,9.76l5.413,9.943l-11.813-2.082L1181.417,207.049z"/>
		<path fill="#F7D118" d="M1232.671,192.726l1.816-10.859l-8.864-7.715l12.014-1.799l5.02-9.79l5.369,9.631l12.059,1.428
			l-8.58,7.976l2.209,10.813l-10.621-4.946L1232.671,192.726z"/>
		<path fill="#F7D118" d="M1309.019,206.509l-9.725-6.229l-11.177,3.89l3.461-10.579l-7.589-8.746l12.11-0.239l6.457-9.055
			l3.866,10.24l11.762,2.971l-9.722,6.813L1309.019,206.509z"/>
		<polygon fill="#F7D118" points="1302.546,324.31 1296.176,315.205 1284.059,314.871 1291.733,306.184 1288.374,295.582 
			1299.51,299.558 1309.292,293.404 1308.635,304.335 1318.295,311.226 1306.507,314.104 		"/>
		<polygon fill="#F7D118" points="1233.235,336.03 1235.066,325.172 1226.21,317.447 1238.222,315.663 1243.257,305.877 
			1248.617,315.516 1260.67,316.958 1252.083,324.924 1254.276,335.739 1243.666,330.781 		"/>
		<polygon fill="#F7D118" points="1185.674,323.686 1180.375,314.017 1168.325,312.513 1176.964,304.591 1174.836,293.768 
			1185.416,298.779 1195.879,293.585 1193.98,304.434 1202.79,312.203 1190.766,313.925 		"/>
	</g>
</g>
<g id="Capa_5">
	<g>
		<path fill-rule="evenodd" clip-rule="evenodd" fill="#FFC100" d="M725.256,83.988v326.06c93.27,0,250.362-49.058,250.362-168.856
			C975.619,127.53,775.21,69.062,725.256,83.988L725.256,83.988z"/>
		<path fill-rule="evenodd" clip-rule="evenodd" fill="#22A8E1" d="M725.256,410.423V79.365
			c-120.226,0-251.457,64.346-251.457,165.158C473.799,342.838,588.521,410.423,725.256,410.423L725.256,410.423z"/>
		<path fill-rule="evenodd" clip-rule="evenodd" d="M861.081,245.682c-5.864-14.906,32.345-6.658,42.805-15.059H830.96v9.644
			c-1.233-2.162-3.511-3.622-6.189-3.622c-4.12,0-7.287,3.17-7.287,7.136c0,0.768,0.142,1.495,0.365,2.19l-48.096-3.146
			l-7.452-6.817v22.201l7.452-7.767l29.262-2.685L809.548,259h107.501l12.678-13.318H861.081L861.081,245.682L861.081,245.682z
			 M819.534,252.662l-12.637-5.623l10.969-1.003c0.942,2.892,3.604,5.034,6.905,5.034c2.679,0,4.956-1.529,6.189-3.738v0.889
			C827.624,252.184,823.979,253.609,819.534,252.662L819.534,252.662z"/>
		<path fill-rule="evenodd" clip-rule="evenodd" d="M881.882,199.428c-5.865-15.063,32.188-6.657,42.808-15.22H851.6v9.543
			c-1.298-2.086-3.596-3.517-6.191-3.517c-3.959,0-7.289,3.325-7.289,7.29c0,0.764,0.164,1.487,0.386,2.185l-47.944-3.136
			l-7.456-6.98v22.362l7.456-7.771l29.113-2.665l10.52,11.229h107.659l12.684-13.321H881.882L881.882,199.428L881.882,199.428z
			 M840.345,206.404l-12.755-5.608l10.944-1.001c0.973,2.881,3.711,5.026,6.874,5.026c2.596,0,4.894-1.435,6.191-3.521v0.667
			C848.427,205.93,844.783,207.356,840.345,206.404L840.345,206.404z"/>
		<path fill-rule="evenodd" clip-rule="evenodd" d="M842.167,292.87c-5.872-15.063,32.339-6.664,42.808-15.224h-73.096v9.477
			c-1.27-2.051-3.521-3.446-6.184-3.446c-3.961,0-7.135,3.324-7.135,7.291c0,0.759,0.15,1.493,0.368,2.192l-48.091-3.149
			l-7.448-6.976v22.356l7.448-7.773l29.133-2.66l10.662,11.226l107.499-0.155l12.688-13.158H842.167L842.167,292.87L842.167,292.87z
			 M800.625,299.844l-12.642-5.619l10.967-1.005c0.937,2.891,3.57,5.04,6.746,5.04c2.662,0,4.914-1.399,6.184-3.455v0.44
			C808.713,299.371,805.066,300.795,800.625,299.844L800.625,299.844z"/>
		<polygon fill-rule="evenodd" clip-rule="evenodd" points="732.322,78.979 732.322,411.837 714.935,411.837 714.935,78.979 
			732.322,78.979 		"/>
		<polygon fill-rule="evenodd" clip-rule="evenodd" points="788.998,157.403 656.444,157.403 656.444,139.84 788.998,139.84 
			788.998,157.403 		"/>
		<polygon fill-rule="evenodd" clip-rule="evenodd" points="472.278,242.516 721.452,242.516 721.452,246.861 472.278,246.861 
			472.278,242.516 		"/>
		<polygon fill-rule="evenodd" clip-rule="evenodd" points="572.681,376.349 721.452,376.349 721.452,380.695 572.681,380.695 
			572.681,376.349 		"/>
		<polygon fill-rule="evenodd" clip-rule="evenodd" points="581.708,107.359 721.452,107.359 721.452,111.885 581.708,111.885 
			581.708,107.359 		"/>
		<polygon fill-rule="evenodd" clip-rule="evenodd" points="493.285,175.053 721.452,175.053 721.452,179.401 493.285,179.401 
			493.285,175.053 		"/>
		<polygon fill-rule="evenodd" clip-rule="evenodd" points="493.285,309.188 721.452,309.188 721.452,313.716 493.285,313.716 
			493.285,309.188 		"/>
		<path fill-rule="evenodd" clip-rule="evenodd" d="M718.37,79.173c-39.476,39.661-62.107,103.043-62.649,166.783h-4.345
			c0.348-63.082,22.3-125.985,60.689-166.531c1.063-1.129,1.684-0.434,2.771-1.523L718.37,79.173L718.37,79.173L718.37,79.173
			L718.37,79.173z M655.72,245.956c-0.364,59.032,18.289,118.433,60.299,159.542l-3.08,3.257
			c-42.915-42.012-61.93-102.678-61.563-162.8H655.72L655.72,245.956z"/>
		<path fill-rule="evenodd" clip-rule="evenodd" d="M704.071,81.89c-49.981,28.793-83.301,63.925-101.23,100.684l-3.801-1.988
			c18.108-37.485,51.97-73.163,102.854-102.497L704.071,81.89L704.071,81.89L704.071,81.89L704.071,81.89z M602.84,182.574
			c-11.229,23.186-16.295,47.083-15.393,70.27l-4.347,0.176c-0.905-23.904,4.347-48.531,15.938-72.434L602.84,182.574
			L602.84,182.574L602.84,182.574L602.84,182.574z M587.448,252.844c0.901,23.537,7.606,46.535,20.102,68.084l-3.801,2.174
			c-12.857-22.092-19.738-45.816-20.647-70.083L587.448,252.844L587.448,252.844L587.448,252.844L587.448,252.844z M607.549,320.928
			c19.016,32.957,51.61,62.472,96.342,84.208l3.678,1.621l-5.49,2.354c-45.635-22.085-78.776-52.15-98.33-86.009L607.549,320.928
			L607.549,320.928z"/>
		<path fill-rule="evenodd" clip-rule="evenodd" d="M685.417,84.246c-66.099,27.344-111.911,59.76-138.532,93.987l-3.621-2.72
			c27.163-34.771,73.702-67.726,140.522-95.254L685.417,84.246L685.417,84.246L685.417,84.246L685.417,84.246z M546.886,178.233
			c-19.375,24.808-28.615,50.517-27.887,75.327l-4.347,0.182c-0.725-25.895,8.694-52.512,28.613-78.229L546.886,178.233
			L546.886,178.233L546.886,178.233L546.886,178.233z M518.999,253.56c0.722,25.172,11.225,49.802,31.33,72.619l-3.262,2.9
			c-20.824-23.545-31.689-49.26-32.416-75.337L518.999,253.56L518.999,253.56L518.999,253.56L518.999,253.56z M550.329,326.179
			c27.163,30.782,71.711,58.131,132.736,78.774l-1.454,4.159c-61.75-20.821-106.838-48.707-134.544-80.033L550.329,326.179
			L550.329,326.179z"/>
		<path fill-rule="evenodd" clip-rule="evenodd" d="M618.219,282.003v-20.72h5.229l-3.354-34.913
			c-0.19-2.242-0.568-4.853-0.753-7.464c-0.186-2.803-0.558-6.724-0.933-12.143c0,1.126-0.189,2.245-0.189,3.552v-22.217h15.313
			l17.736,114.63h-23.524l-2.241-20.725H618.219L618.219,282.003L618.219,282.003z M547.466,259.975v13.816
			c0,3.356,0.559,5.978,1.303,7.652c0.749,1.491,2.059,2.43,3.548,2.43c1.871,0,3.362-0.75,4.11-2.43
			c0.745-1.495,1.306-4.105,1.306-7.652v-85.693h22.221v80.836c0,11.764-2.242,20.732-6.907,26.699
			c-4.67,5.785-11.578,8.777-20.73,8.777c-8.774,0-15.494-2.992-19.975-8.959c-4.48-5.974-6.722-14.752-6.722-26.517v-8.959H547.466
			L547.466,259.975L547.466,259.975L547.466,259.975z M618.219,188.098v22.217c-0.185,2.05-0.371,3.921-0.56,5.974
			c-0.368,3.361-0.743,6.722-1.115,10.271l-3.734,34.723h5.409v20.72h-7.841l-2.232,20.725H585.74l18.107-114.63H618.219
			L618.219,188.098z"/>
		<path fill-rule="evenodd" clip-rule="evenodd" d="M468.328,245.353c0,92.965,114.273,168.594,254.734,168.594
			c140.455,0,254.729-75.629,254.729-168.594c0-92.966-114.273-168.595-254.729-168.595
			C582.601,76.758,468.328,152.387,468.328,245.353L468.328,245.353L468.328,245.353z M475.876,245.353
			c0-88.807,110.882-161.048,247.186-161.048c136.298,0,247.187,72.241,247.187,161.048c0,88.801-110.889,161.046-247.187,161.046
			C586.758,406.399,475.876,334.154,475.876,245.353L475.876,245.353z"/>
	</g>
</g>
</svg>
